<svg width="424" height="500" viewBox="0 0 424 500" fill="none" xmlns="http://www.w3.org/2000/svg">
<g clip-path="url(#clip0_415_7291)">
<g clip-path="url(#clip1_415_7291)">
<path d="M192.143 318.775H37.5755C37.3428 318.775 37.1538 318.586 37.1538 318.353C37.1538 318.12 37.3428 317.932 37.5755 317.932H192.143C192.374 317.932 192.563 318.12 192.563 318.353C192.563 318.586 192.374 318.775 192.143 318.775Z" fill="#4ADA85"/>
<path d="M140.294 317.332H178.624V281.59H140.294V317.332ZM179.047 318.175H139.872C139.639 318.175 139.451 317.987 139.451 317.754V281.168C139.451 280.935 139.639 280.746 139.872 280.746H179.047C179.28 280.746 179.468 280.935 179.468 281.168V317.754C179.468 317.987 179.28 318.175 179.047 318.175Z" fill="#4ADA85"/>
<path d="M139.872 318.176C139.76 318.176 139.647 318.131 139.564 318.042C139.405 317.872 139.414 317.605 139.584 317.446L178.758 280.86C178.929 280.701 179.196 280.71 179.355 280.88C179.514 281.05 179.504 281.317 179.334 281.476L140.16 318.062C140.079 318.138 139.976 318.176 139.872 318.176Z" fill="#4ADA85"/>
<path d="M94.196 317.332H132.527V281.59H94.196V317.332ZM132.949 318.175H93.7743C93.5415 318.175 93.3525 317.987 93.3525 317.754V281.168C93.3525 280.935 93.5415 280.746 93.7743 280.746H132.949C133.182 280.746 133.371 280.935 133.371 281.168V317.754C133.371 317.987 133.182 318.175 132.949 318.175Z" fill="#4C73FF"/>
<path d="M93.7742 318.176C93.6615 318.176 93.5493 318.131 93.4661 318.042C93.307 317.872 93.3163 317.605 93.4864 317.446L132.661 280.86C132.832 280.701 133.098 280.71 133.257 280.88C133.416 281.05 133.407 281.317 133.237 281.476L94.062 318.062C93.9807 318.138 93.8773 318.176 93.7742 318.176Z" fill="#4C73FF"/>
<path d="M48.0978 317.332H86.4293V281.59H48.0978V317.332ZM86.8511 318.175H47.6759C47.4432 318.175 47.2544 317.987 47.2544 317.754V281.168C47.2544 280.935 47.4432 280.746 47.6759 280.746H86.8511C87.0838 280.746 87.2726 280.935 87.2726 281.168V317.754C87.2726 317.987 87.0838 318.175 86.8511 318.175Z" fill="#4C73FF"/>
<path d="M47.676 318.176C47.5635 318.176 47.451 318.131 47.3678 318.042C47.2089 317.872 47.2181 317.605 47.3883 317.446L86.5631 280.86C86.7333 280.701 87.0001 280.71 87.1592 280.88C87.3181 281.05 87.309 281.317 87.1387 281.476L47.964 318.062C47.8827 318.138 47.7792 318.176 47.676 318.176Z" fill="#4C73FF"/>
<path d="M191.064 412.242H44.7652C44.5323 412.242 44.3435 412.053 44.3435 411.819C44.3435 411.586 44.5323 411.398 44.7652 411.398H191.064C191.295 411.398 191.485 411.586 191.485 411.819C191.485 412.053 191.295 412.242 191.064 412.242Z" fill="#4ADA85"/>
<path d="M47.676 411.643C47.5635 411.643 47.451 411.597 47.3678 411.509C47.2089 411.339 47.2181 411.071 47.3883 410.913L86.5631 374.327C86.7333 374.166 87.0001 374.176 87.1592 374.346C87.3181 374.517 87.309 374.784 87.1387 374.943L47.964 411.529C47.8827 411.605 47.7792 411.643 47.676 411.643Z" fill="#4ADA85"/>
<path d="M192.143 365.508H37.5755C37.3428 365.508 37.1538 365.319 37.1538 365.087C37.1538 364.854 37.3428 364.665 37.5755 364.665H192.143C192.374 364.665 192.563 364.854 192.563 365.087C192.563 365.319 192.374 365.508 192.143 365.508Z" fill="#4ADA85"/>
<path d="M140.294 364.066H178.624V328.323H140.294V364.066ZM179.047 364.91H139.872C139.639 364.91 139.451 364.72 139.451 364.487V327.901C139.451 327.668 139.639 327.48 139.872 327.48H179.047C179.28 327.48 179.468 327.668 179.468 327.901V364.487C179.468 364.72 179.28 364.91 179.047 364.91Z" fill="#4ADA85"/>
<path d="M139.872 364.91C139.76 364.91 139.647 364.864 139.564 364.776C139.405 364.605 139.414 364.338 139.584 364.179L178.758 327.593C178.929 327.434 179.196 327.443 179.355 327.613C179.514 327.784 179.504 328.05 179.334 328.209L140.16 364.795C140.079 364.871 139.976 364.91 139.872 364.91Z" fill="#4ADA85"/>
<path d="M37.5755 434.843C37.3428 434.843 37.1538 434.655 37.1538 434.422V242.861C37.1538 242.628 37.3428 242.44 37.5755 242.44C37.8085 242.44 37.9973 242.628 37.9973 242.861V434.422C37.9973 434.655 37.8085 434.843 37.5755 434.843Z" fill="#4ADA85"/>
<path d="M192.154 434.843C191.923 434.843 191.733 434.655 191.733 434.422V242.861C191.733 242.628 191.923 242.44 192.154 242.44C192.387 242.44 192.577 242.628 192.577 242.861V434.422C192.577 434.655 192.387 434.843 192.154 434.843Z" fill="#4ADA85"/>
<path d="M192.143 272.042H37.5755C37.3428 272.042 37.1538 271.853 37.1538 271.62C37.1538 271.387 37.3428 271.198 37.5755 271.198H192.143C192.374 271.198 192.563 271.387 192.563 271.62C192.563 271.853 192.374 272.042 192.143 272.042Z" fill="#4ADA85"/>
<path d="M140.294 270.599H178.624V243.632H140.294V270.599ZM179.047 271.442H139.872C139.639 271.442 139.451 271.254 139.451 271.021V243.21C139.451 242.977 139.639 242.788 139.872 242.788H179.047C179.28 242.788 179.468 242.977 179.468 243.21V271.021C179.468 271.254 179.28 271.442 179.047 271.442Z" fill="#FDA4FF"/>
<path d="M139.873 271.442C139.741 271.442 139.611 271.381 139.529 271.265C139.394 271.075 139.438 270.811 139.628 270.677L178.803 242.866C178.994 242.731 179.256 242.776 179.392 242.966C179.525 243.155 179.481 243.419 179.292 243.554L140.117 271.365C140.043 271.417 139.957 271.442 139.873 271.442Z" fill="#FDA4FF"/>
<path d="M94.196 270.599H132.527V243.632H94.196V270.599ZM132.949 271.442H93.7743C93.5415 271.442 93.3525 271.254 93.3525 271.021V243.21C93.3525 242.977 93.5415 242.788 93.7743 242.788H132.949C133.182 242.788 133.371 242.977 133.371 243.21V271.021C133.371 271.254 133.182 271.442 132.949 271.442Z" fill="#4ADA85"/>
<path d="M93.7747 271.442C93.6427 271.442 93.5126 271.381 93.4304 271.265C93.2956 271.075 93.3403 270.811 93.53 270.677L132.705 242.866C132.895 242.731 133.158 242.776 133.293 242.966C133.428 243.155 133.383 243.419 133.193 243.554L94.0185 271.365C93.9443 271.417 93.8592 271.442 93.7747 271.442Z" fill="#4ADA85"/>
<path d="M48.0978 270.599H86.4293V243.632H48.0978V270.599ZM86.8511 271.442H47.6759C47.4432 271.442 47.2544 271.254 47.2544 271.021V243.21C47.2544 242.977 47.4432 242.788 47.6759 242.788H86.8511C87.0838 242.788 87.2726 242.977 87.2726 243.21V271.021C87.2726 271.254 87.0838 271.442 86.8511 271.442Z" fill="#4ADA85"/>
<path d="M47.6766 271.442C47.5446 271.442 47.4144 271.381 47.3323 271.265C47.1975 271.075 47.242 270.811 47.432 270.677L86.6067 242.866C86.7968 242.731 87.0602 242.776 87.1948 242.966C87.3299 243.155 87.2851 243.419 87.0952 243.554L47.9202 271.365C47.8462 271.417 47.7609 271.442 47.6766 271.442Z" fill="#4ADA85"/>
<path d="M50.2153 364.066H88.5464V328.323H50.2153V364.066ZM88.9681 364.91H49.7936C49.5606 364.91 49.3718 364.72 49.3718 364.487V327.901C49.3718 327.668 49.5606 327.48 49.7936 327.48H88.9681C89.2011 327.48 89.39 327.668 89.39 327.901V364.487C89.39 364.72 89.2011 364.91 88.9681 364.91Z" fill="#FDA4FF"/>
<path d="M49.7936 364.91C49.6809 364.91 49.5685 364.864 49.4853 364.776C49.3263 364.605 49.3355 364.338 49.5057 364.179L88.6803 327.593C88.8509 327.434 89.1171 327.443 89.2765 327.613C89.4354 327.784 89.4262 328.05 89.2562 328.209L50.0814 364.795C50.0001 364.871 49.8967 364.91 49.7936 364.91Z" fill="#FDA4FF"/>
<path d="M160.06 390.234V457.287C160.06 490.674 184.118 517.739 213.793 517.739H209.541C239.217 517.739 267.527 544.806 267.527 578.192V583.579H118.14C73.6516 583.579 37.5869 543.004 37.5869 492.952V390.234H160.06Z" fill="white"/>
<path d="M38.0084 390.655V492.952C38.0084 542.692 73.955 583.157 118.14 583.157H267.106V578.192C267.106 546.213 240.205 518.162 209.541 518.162C209.38 518.162 209.241 518.072 209.17 517.942C181.463 515.297 159.638 489.104 159.638 457.287V390.655H38.0084ZM267.526 584H118.14C73.4902 584 37.1648 543.157 37.1648 492.952V390.234C37.1648 390.001 37.3538 389.811 37.5867 389.811H160.06C160.293 389.811 160.482 390.001 160.482 390.234V457.287C160.482 490.387 184.397 517.318 213.793 517.318C213.952 517.318 214.091 517.406 214.162 517.534C227.141 518.751 239.974 525.02 249.963 535.149C261.561 546.912 267.949 562.199 267.949 578.192V583.577C267.949 583.811 267.76 584 267.526 584Z" fill="black"/>
<path d="M263.604 518.147L263.543 518.261L253.096 538.525L234.583 574.426V574.431L234.518 574.552V574.556L232.94 577.614V577.618L231.031 581.317L230.878 581.613H160.888L161.046 581.307L165.158 573.336L181.264 542.132C181.298 542.067 181.329 542.002 181.36 541.937C181.365 541.927 181.371 541.912 181.377 541.903C181.39 541.872 181.405 541.847 181.417 541.818C181.457 541.732 181.488 541.648 181.513 541.568C181.549 541.472 181.58 541.377 181.61 541.283C181.631 541.222 181.645 541.166 181.66 541.107C181.66 541.101 181.666 541.092 181.666 541.088C181.687 541.027 181.696 540.971 181.706 540.918C181.706 540.912 181.712 540.902 181.712 540.897C181.727 540.831 181.736 540.772 181.748 540.711C181.757 540.657 181.767 540.602 181.773 540.547C181.782 540.491 181.794 540.432 181.798 540.376V540.367C181.803 540.292 181.813 540.216 181.813 540.141C181.824 540.042 181.824 539.952 181.824 539.86C181.824 539.81 181.824 539.766 181.819 539.716C181.819 539.671 181.819 539.627 181.813 539.581V539.535C181.809 539.481 181.803 539.426 181.798 539.376C181.794 539.33 181.788 539.286 181.782 539.246C181.778 539.175 181.767 539.101 181.752 539.03C181.748 538.99 181.736 538.95 181.733 538.915C181.721 538.86 181.712 538.81 181.696 538.754C181.681 538.686 181.666 538.615 181.641 538.544C181.635 538.534 181.635 538.525 181.635 538.525C181.601 538.399 181.559 538.274 181.518 538.154C181.472 538.03 181.421 537.909 181.371 537.794C181.316 537.674 181.258 537.559 181.193 537.444C181.142 537.349 181.08 537.253 181.025 537.157C181.015 537.144 181.004 537.129 180.994 537.113C180.933 537.018 180.866 536.928 180.801 536.838C180.627 536.609 180.434 536.398 180.222 536.203C180.134 536.117 180.042 536.042 179.95 535.968C179.94 535.958 179.925 535.947 179.916 535.937C179.824 535.866 179.732 535.801 179.636 535.736C179.548 535.677 179.457 535.622 179.365 535.566C179.321 535.537 179.269 535.513 179.218 535.488C179.152 535.448 179.08 535.411 179.009 535.383C178.736 535.247 178.439 535.142 178.129 535.067C178.016 535.036 177.9 535.012 177.777 534.99C177.64 534.968 177.504 534.947 177.36 534.937C177.219 534.922 177.075 534.916 176.928 534.916H96.4907V488.697H245.895C260.882 488.697 270.525 504.73 263.604 518.147Z" fill="#4ADA85"/>
<path d="M159.503 583.694C159.437 583.694 159.37 583.679 159.307 583.646C159.101 583.537 159.022 583.281 159.131 583.076L180.893 541.935C181.625 540.518 181.566 538.854 180.734 537.488C179.915 536.144 178.493 535.341 176.93 535.341H96.0688V488.272H245.897C253.031 488.272 259.522 491.933 263.259 498.065C267.05 504.284 267.32 511.864 263.98 518.34L231.408 581.508C231.3 581.716 231.046 581.797 230.839 581.69C230.633 581.583 230.551 581.328 230.658 581.122L263.231 517.953C266.434 511.741 266.176 504.47 262.538 498.504C258.956 492.625 252.735 489.116 245.897 489.116H96.9123V534.497H176.93C178.791 534.497 180.482 535.451 181.455 537.048C182.442 538.668 182.511 540.64 181.641 542.327L159.877 583.47C159.801 583.614 159.655 583.694 159.503 583.694Z" fill="black"/>
<path d="M311.072 581.613H237.163C237.128 581.562 237.088 581.518 237.052 581.472C237.021 581.437 236.996 581.403 236.966 581.367C236.782 581.147 236.593 580.932 236.399 580.722C236.277 580.586 236.151 580.452 236.023 580.317C235.906 580.19 235.784 580.06 235.657 579.942C235.56 579.84 235.464 579.747 235.367 579.655C235.244 579.536 235.124 579.416 234.996 579.301C234.864 579.175 234.726 579.05 234.582 578.936V578.93C234.563 578.911 234.542 578.89 234.517 578.874C234.34 578.716 234.156 578.559 233.972 578.414C233.794 578.264 233.611 578.119 233.429 577.979C233.265 577.855 233.102 577.735 232.94 577.618V577.614C232.706 577.444 232.471 577.279 232.232 577.123C232.064 577.008 231.891 576.893 231.717 576.788C231.591 576.704 231.463 576.627 231.331 576.549C231.205 576.468 231.073 576.392 230.945 576.323C230.807 576.237 230.666 576.159 230.518 576.082C230.314 575.967 230.115 575.862 229.906 575.757C229.703 575.652 229.495 575.552 229.287 575.451C229.078 575.357 228.864 575.262 228.655 575.172C228.462 575.088 228.269 575.007 228.076 574.927C227.795 574.816 227.516 574.711 227.234 574.611C227.099 574.562 226.955 574.516 226.817 574.472C226.756 574.447 226.691 574.426 226.624 574.407C226.431 574.345 226.238 574.286 226.039 574.227C225.852 574.171 225.662 574.12 225.475 574.07C225.414 574.051 225.347 574.036 225.285 574.02C224.865 573.915 224.436 573.821 224.004 573.735C223.775 573.689 223.547 573.649 223.317 573.615C223.097 573.58 222.885 573.55 222.665 573.521C222.635 573.515 222.61 573.515 222.579 573.51C222.38 573.485 222.181 573.46 221.984 573.441C221.948 573.441 221.912 573.435 221.872 573.429C221.688 573.416 221.51 573.401 221.326 573.389C221.191 573.38 221.053 573.37 220.91 573.364C220.747 573.355 220.579 573.351 220.416 573.345C220.213 573.339 220.005 573.336 219.796 573.336H102.831C71.0165 573.336 50.6616 539.126 65.6122 510.776L73.0366 496.693L77.3265 488.561H147.759V510.556H235.933C245.809 510.556 255.32 513.292 263.543 518.261C270.409 522.412 276.372 528.121 280.891 535.086L310.915 581.367L310.98 581.472L311.072 581.613Z" fill="#4ADA85"/>
<path d="M236.024 580.737C235.914 580.737 235.803 580.693 235.718 580.605C231.58 576.254 225.777 573.758 219.798 573.758H102.832C87.846 573.758 74.2482 566.047 66.4575 553.129C58.554 540.026 58.0986 524.119 65.2396 510.58L73.4897 496.479C73.6071 496.276 73.8655 496.209 74.0667 496.328C74.2677 496.445 74.3354 496.703 74.2178 496.904L65.9765 510.99C58.9838 524.249 59.4302 539.845 67.1799 552.693C74.8162 565.354 88.1441 572.915 102.832 572.915H219.798C226.006 572.915 232.031 575.506 236.331 580.024C236.491 580.194 236.483 580.46 236.315 580.621C236.233 580.699 236.13 580.737 236.024 580.737Z" fill="black"/>
<path d="M386.771 436.269H212.217V583.378H386.771V436.269Z" fill="white"/>
<path d="M386.769 583.943H211.748V435.847H386.769C387.003 435.847 387.192 436.036 387.192 436.269C387.192 436.503 387.003 436.69 386.769 436.69H212.592V583.099H386.769C387.003 583.099 387.192 583.288 387.192 583.522C387.192 583.755 387.003 583.943 386.769 583.943Z" fill="black"/>
<path d="M134.074 309.682C129.417 314.356 129.431 321.92 134.105 326.577C138.779 331.234 146.343 331.221 151 326.547C155.657 321.873 155.644 314.308 150.97 309.651C146.296 304.994 138.732 305.008 134.074 309.682Z" fill="black"/>
<path d="M91.3435 309.759C86.6864 314.433 86.7001 321.998 91.3741 326.654C96.048 331.312 103.612 331.298 108.269 326.624C112.926 321.95 112.913 314.386 108.239 309.729C103.565 305.072 96.0006 305.085 91.3435 309.759Z" fill="black"/>
<path d="M103.29 292.594C98.6332 297.268 98.6468 304.832 103.321 309.489C107.995 314.146 115.559 314.132 120.216 309.458C124.873 304.785 124.859 297.22 120.185 292.563C115.512 287.906 107.947 287.92 103.29 292.594Z" fill="black"/>
<path d="M81.9249 292.633C77.2678 297.306 77.2813 304.871 81.9553 309.528C86.6292 314.185 94.1934 314.171 98.8505 309.497C103.508 304.823 103.494 297.259 98.8199 292.602C94.1462 287.945 86.5818 287.959 81.9249 292.633Z" fill="black"/>
<path d="M91.9622 275.613C87.3051 280.287 87.3187 287.851 91.9926 292.508C96.6666 297.165 104.231 297.151 108.888 292.477C113.545 287.803 113.531 280.239 108.857 275.582C104.184 270.925 96.6191 270.939 91.9622 275.613Z" fill="black"/>
<path d="M123.941 258.554C119.284 263.228 119.298 270.792 123.971 275.449C128.645 280.107 136.21 280.093 140.867 275.419C145.524 270.745 145.51 263.181 140.836 258.524C136.162 253.867 128.598 253.88 123.941 258.554Z" fill="black"/>
<path d="M102.575 258.593C97.9184 263.267 97.932 270.831 102.606 275.488C107.28 280.145 114.844 280.132 119.501 275.458C124.158 270.784 124.145 263.22 119.471 258.562C114.797 253.905 107.232 253.919 102.575 258.593Z" fill="black"/>
<path d="M134.744 275.574C130.087 280.248 130.101 287.812 134.775 292.469C139.449 297.126 147.013 297.113 151.67 292.439C156.327 287.765 156.313 280.201 151.639 275.543C146.966 270.886 139.401 270.9 134.744 275.574Z" fill="black"/>
<path d="M128.896 331.236H109.12V356.146H128.896V331.236Z" fill="#955B50"/>
<path d="M109.12 338.734V331.236H128.896V347.786C127.111 348.142 123.554 348.589 119.469 347.244C113.075 345.137 109.936 340.136 109.12 338.734Z" fill="black"/>
<path d="M106.089 325.803C106.089 335.384 113.115 343.15 121.783 343.15C130.451 343.15 137.478 335.384 137.478 325.803C137.478 316.223 130.451 308.457 121.783 308.457C113.115 308.457 106.089 316.223 106.089 325.803Z" fill="#955B50"/>
<path d="M121.783 343.572C116.793 343.572 113.516 342.757 109.449 338.306C109.292 338.134 109.304 337.867 109.476 337.71C109.648 337.553 109.915 337.565 110.071 337.737C113.949 341.981 116.938 342.728 121.783 342.728C130.204 342.728 137.056 335.136 137.056 325.803C137.056 316.471 130.204 308.878 121.783 308.878C116.375 308.878 111.479 311.949 108.687 317.092C108.575 317.295 108.319 317.372 108.115 317.261C107.91 317.15 107.834 316.894 107.945 316.689C110.843 311.351 116.146 308.035 121.783 308.035C130.67 308.035 137.899 316.006 137.899 325.803C137.899 335.601 130.67 343.572 121.783 343.572Z" fill="black"/>
<path d="M121.783 308.457C113.115 308.457 106.088 316.223 106.088 325.803C106.088 326.665 106.147 327.511 106.257 328.339L120.517 315.459L136.823 320.842C134.891 313.68 128.891 308.457 121.783 308.457Z" fill="black"/>
<path d="M114.756 330.465C115.045 332.193 115.863 333.848 117.225 335.155C120.262 338.067 124.908 338.249 128.155 335.78L114.756 330.465Z" fill="white"/>
<path d="M113.328 275.574C108.671 280.248 108.684 287.812 113.358 292.469C118.032 297.126 125.596 297.113 130.253 292.439C134.91 287.765 134.897 280.201 130.223 275.543C125.549 270.886 117.985 270.9 113.328 275.574Z" fill="black"/>
<path d="M121.347 292.633C116.69 297.306 116.704 304.871 121.378 309.528C126.051 314.185 133.615 314.171 138.273 309.497C142.93 304.823 142.916 297.259 138.242 292.602C133.568 287.945 126.004 287.959 121.347 292.633Z" fill="black"/>
<path d="M142.712 292.594C138.055 297.268 138.069 304.832 142.743 309.489C147.417 314.146 154.981 314.132 159.638 309.458C164.295 304.785 164.281 297.22 159.608 292.563C154.934 287.906 147.369 287.92 142.712 292.594Z" fill="black"/>
<path d="M237.298 422.564L227.548 416.694H226.955V416.262L227.16 416.411L164.239 365.906L128.021 407.286L219.452 473.631C238.555 487.492 265.62 477.791 271.566 454.949L319.893 407.986L270.68 391.93L237.298 422.564Z" fill="#4C73FF"/>
<path d="M178.812 497.169L73.0151 494.742L83.9072 356.146C88.1967 353.985 99.0504 354.231 114.74 354.231H126.988C136.771 354.231 146.299 357.348 154.19 363.129L177.448 380.17L169.297 432.349L178.812 497.169Z" fill="#4C73FF"/>
<path d="M130.776 414.426C130.642 414.426 130.51 414.363 130.429 414.244C130.297 414.053 130.345 413.789 130.536 413.657C135.46 410.262 138.31 404.68 138.161 398.72C137.921 389.106 130.194 381.568 120.57 381.559C120.337 381.559 120.149 381.369 120.149 381.136C120.149 380.903 120.338 380.715 120.571 380.715H120.571C130.656 380.725 138.753 388.625 139.004 398.699C139.16 404.944 136.174 410.794 131.015 414.351C130.942 414.401 130.859 414.426 130.776 414.426Z" fill="black"/>
<path d="M191.726 500.008L69.3809 499.814L73.311 428.489C73.3865 428.405 73.5133 428.309 73.6878 428.204C96.3618 414.5 106.223 388.153 99.5082 363.743L96.6531 353.364L100.781 353.343L109.298 353.305L116.937 353.271L143.029 353.149C148.661 353.083 154.087 355.156 158.026 358.911C160.887 361.637 163.728 364.569 164.239 365.906C169.783 380.415 175.935 416.589 177.63 418.458L188.226 437.069L188.249 444.539L191.726 500.008Z" fill="#FED101"/>
<path d="M188.249 440.148L142.057 442.325L72.3679 445.603L72.7828 438.077L141.976 434.858L185.529 432.806L188.226 437.069L188.249 440.148Z" fill="white"/>
<path d="M136.691 417.541L86.6528 419.877C88.7014 418.058 90.6187 415.799 92.2785 412.968C92.2968 412.94 92.3018 412.902 92.3156 412.867C92.4188 412.578 92.5173 412.288 92.6111 411.995L98.335 411.739L107.176 411.339L136.606 410.008L153.895 409.222L162.736 408.824L174.874 408.294C175.597 410.731 176.318 414.468 176.634 415.673C176.658 415.77 136.691 417.541 136.691 417.541Z" fill="white"/>
<path d="M112.797 415.572L101.062 353.332L109.671 353.295L121.245 414.659L112.797 415.572Z" fill="white"/>
<path d="M111.217 353.243C111.819 353.241 135.702 385.15 135.702 385.15L137.363 353.141L111.217 353.243Z" fill="#4C73FF"/>
<path d="M112.181 353.704C113.406 355.111 116.367 358.878 124.021 368.964C128.804 375.264 133.589 381.633 135.342 383.968L136.919 353.565L112.181 353.704ZM135.702 385.573C135.572 385.573 135.446 385.512 135.365 385.405C126.164 373.128 112.164 354.643 111.032 353.667C110.893 353.599 110.796 353.456 110.795 353.29C110.794 353.057 110.982 352.867 111.215 352.866H111.216L137.361 352.719C137.484 352.737 137.589 352.765 137.668 352.849C137.748 352.934 137.791 353.047 137.785 353.162L136.123 385.173C136.114 385.351 135.995 385.502 135.825 385.554C135.785 385.567 135.743 385.573 135.702 385.573Z" fill="black"/>
<path d="M190.027 476.236L143.146 478.411L70.374 481.792L70.7868 474.301L143.064 470.944L190.002 468.766L190.027 476.236Z" fill="white"/>
<path d="M142.282 500.113C142.06 500.113 141.874 499.941 141.861 499.717L135.281 385.175C135.268 384.942 135.445 384.743 135.678 384.73C135.908 384.724 136.11 384.894 136.123 385.127L142.704 499.667C142.717 499.901 142.539 500.1 142.307 500.113H142.282Z" fill="black"/>
<path d="M152.079 415.325L140.344 353.085L149.178 353.848L160.528 414.413L152.079 415.325Z" fill="white"/>
<path d="M69.8266 499.394L191.276 499.585L187.828 444.566L187.805 437.18L177.282 418.699C176.521 417.733 175.295 412.242 173.046 401.939C170.364 389.662 167.027 374.384 163.845 366.055C163.565 365.325 162.279 363.546 157.735 359.216C153.904 355.564 148.555 353.504 143.034 353.572L97.2061 353.783L99.9151 363.632C103.267 375.817 102.609 388.444 98.0113 400.143C93.341 412.03 85.0057 421.856 73.9059 428.564C73.8246 428.613 73.7653 428.654 73.7225 428.686L69.8266 499.394ZM192.175 500.43L191.724 500.429L68.9353 500.235L72.8981 428.319L72.9963 428.21C73.0999 428.093 73.2546 427.973 73.4698 427.843C95.6432 414.443 105.944 388.729 99.1017 363.856L96.1007 352.945L143.027 352.728C148.766 352.666 154.327 354.803 158.317 358.605C162.056 362.169 164.181 364.575 164.632 365.755C167.838 374.142 171.181 389.456 173.87 401.757C175.633 409.836 177.301 417.465 177.944 418.175L177.997 418.249L188.646 436.956L188.669 444.538L192.175 500.43Z" fill="black"/>
<path d="M373.942 374.398H266.823V515.893H373.942V374.398Z" fill="#FED101"/>
<path d="M267.243 515.473H373.521V374.82H267.243V515.473ZM373.942 516.316H266.823C266.589 516.316 266.4 516.127 266.4 515.893V374.398C266.4 374.164 266.589 373.977 266.823 373.977H373.942C374.175 373.977 374.364 374.164 374.364 374.398V515.893C374.364 516.127 374.175 516.316 373.942 516.316Z" fill="black"/>
<path d="M357.513 515.473H373.521V374.82H357.513V515.473ZM373.942 516.316H357.092C356.859 516.316 356.669 516.127 356.669 515.893V374.398C356.669 374.164 356.859 373.977 357.092 373.977H373.942C374.175 373.977 374.365 374.164 374.365 374.398V515.893C374.365 516.127 374.175 516.316 373.942 516.316Z" fill="black"/>
<path d="M303.135 499.99C299.067 499.99 295.769 496.693 295.769 492.625V485.26H310.5V492.625C310.5 496.693 307.203 499.99 303.135 499.99Z" fill="black"/>
<path d="M303.135 509.544C302.901 509.544 302.714 509.354 302.714 509.121V492.625C302.714 492.392 302.901 492.204 303.135 492.204C303.368 492.204 303.557 492.392 303.557 492.625V509.121C303.557 509.354 303.368 509.544 303.135 509.544Z" fill="black"/>
<path d="M376.35 439.917H326.701V451.652H376.35V439.917Z" fill="white"/>
<path d="M327.122 451.229H375.929V440.337H327.122V451.229ZM376.35 452.073H326.701C326.468 452.073 326.279 451.885 326.279 451.652V439.917C326.279 439.683 326.468 439.494 326.701 439.494H376.35C376.583 439.494 376.773 439.683 376.773 439.917V451.652C376.773 451.885 376.583 452.073 376.35 452.073Z" fill="black"/>
<path d="M348.156 372.91H336.421V517.204H348.156V372.91Z" fill="white"/>
<path d="M336.843 516.781H347.736V373.332H336.843V516.781ZM348.156 517.624H336.421C336.189 517.624 336 517.435 336 517.204V372.912C336 372.678 336.189 372.489 336.421 372.489H348.156C348.39 372.489 348.579 372.678 348.579 372.912V517.204C348.579 517.435 348.39 517.624 348.156 517.624Z" fill="black"/>
<path d="M292.543 496.29H272.954C272.954 491.281 277.015 487.22 282.024 487.22H283.473C288.482 487.22 292.543 491.281 292.543 496.29Z" fill="black"/>
<path d="M281.045 509.544C279.874 509.544 278.92 508.589 278.92 507.419V505.401C278.92 505.168 279.109 504.978 279.342 504.978C279.576 504.978 279.763 505.168 279.763 505.401V507.419C279.763 508.125 280.339 508.7 281.045 508.7C281.752 508.7 282.328 508.125 282.328 507.419V485.26C282.328 485.027 282.515 484.839 282.749 484.839C282.982 484.839 283.171 485.027 283.171 485.26V507.419C283.171 508.589 282.217 509.544 281.045 509.544Z" fill="black"/>
<path d="M275.959 408.166L320.195 421.925L293.497 448.623L270.539 421.139L275.959 408.166Z" fill="white"/>
<path d="M320.195 421.925H293.497V448.623H320.195V421.925Z" fill="white"/>
<path d="M293.918 448.202H319.774V422.346H293.918V448.202ZM320.195 449.045H293.497C293.264 449.045 293.074 448.856 293.074 448.623V421.923C293.074 421.692 293.264 421.502 293.497 421.502H320.195C320.428 421.502 320.617 421.692 320.617 421.923V448.623C320.617 448.856 320.428 449.045 320.195 449.045Z" fill="black"/>
<path d="M307.769 425.029H297.238V435.558H307.769V425.029Z" fill="black"/>
<path d="M313.108 435.558H307.769V440.9H313.108V435.558Z" fill="black"/>
<path d="M307.769 440.9H302.427V446.24H307.769V440.9Z" fill="black"/>
<path d="M317.624 425.029H312.284V430.369H317.624V425.029Z" fill="black"/>
<path d="M216.977 408.166L207.267 462.338L219.349 464.503L228.411 413.948C228.85 412.332 216.977 408.166 216.977 408.166Z" fill="black"/>
<path d="M274.94 401.283L267.047 427.055L215.107 411.148C209.281 409.363 206.003 403.193 207.788 397.368L212.45 382.146L274.94 401.283Z" fill="white"/>
<path d="M219.674 388.384L215.371 402.44C214.634 404.84 215.99 407.392 218.391 408.126L259.823 420.816L265.459 402.407L219.674 388.384ZM260.381 421.87L218.144 408.933C215.298 408.061 213.691 405.037 214.564 402.191L219.115 387.331L266.513 401.847L260.381 421.87Z" fill="black"/>
<path d="M262.971 402.411L257.763 419.418L219.332 407.648C217.782 407.173 216.91 405.532 217.385 403.983L221.734 389.782L262.971 402.411Z" fill="black"/>
<path d="M274.083 404.081L268.058 423.752L269.969 424.337C270.931 424.633 271.952 424.092 272.247 423.128L277.204 406.944C277.499 405.98 276.957 404.961 275.993 404.666L274.083 404.081Z" fill="black"/>
<path d="M212.729 382.672L208.191 397.49C207.361 400.2 207.636 403.073 208.965 405.575C210.295 408.078 212.519 409.914 215.231 410.744L266.767 426.529L274.412 401.562L212.729 382.672ZM267.326 427.581L214.982 411.549C212.058 410.654 209.656 408.673 208.222 405.97C206.785 403.268 206.489 400.17 207.386 397.243L212.171 381.618L275.466 401.003L267.326 427.581Z" fill="black"/>
<path d="M220.669 464.533L219.821 469.254L204.766 466.555L205.613 461.833L220.669 464.533Z" fill="white"/>
<path d="M205.255 466.215L219.481 468.764L220.179 464.874L205.953 462.322L205.255 466.215ZM220.162 469.743L204.276 466.895L205.272 461.343L221.158 464.191L220.162 469.743Z" fill="black"/>
<path d="M215.604 417.018L214.127 426.202L227.804 428.401L227.399 430.92L231.331 431.553C234.561 432.071 237.602 429.874 238.123 426.642C238.643 423.409 236.443 420.368 233.211 419.85L215.604 417.018Z" fill="#955B50"/>
<path d="M216.164 426.517L214.688 435.701L228.365 437.901L227.959 440.42L232.089 441.083C235.212 441.584 238.149 439.461 238.651 436.338L238.716 435.942C239.217 432.821 237.092 429.881 233.97 429.38L216.164 426.517Z" fill="#955B50"/>
<path d="M212.117 435.273L210.641 444.459L224.318 446.658L223.914 449.175L228.041 449.839C231.165 450.342 234.102 448.217 234.605 445.096L234.668 444.7C235.17 441.577 233.047 438.639 229.923 438.136L212.117 435.273Z" fill="#955B50"/>
<path d="M208.583 444.101L207.104 453.285L220.783 455.485L219.748 461.852L222.946 462.366C226.584 462.952 230.006 460.479 230.593 456.843L230.977 454.466C231.564 450.826 229.089 447.399 225.45 446.813L208.583 444.101Z" fill="#955B50"/>
<path d="M194.023 415.08L200.095 424.568C200.095 424.568 210.792 413.867 213.449 411.312C213.839 410.847 217.088 408.497 219.075 402.861C219.085 402.734 221.464 397.72 217.41 393.502L217.304 393.393C215.608 391.628 212.638 392.274 211.834 394.589C210.882 397.324 210.354 399.374 208.004 401.635L194.023 415.08Z" fill="#955B50"/>
<path d="M199.976 414.504C195.237 413.743 190.394 413.904 185.716 414.979L148.387 423.562C148.387 423.562 121.995 457.537 137.444 458.134C139.346 458.207 141.233 458.077 143.066 457.725C143.412 457.658 143.757 457.585 144.102 457.505L180.895 449.065L215.782 454.676L221.68 417.995L199.976 414.504Z" fill="#955B50"/>
<path d="M234.003 441.489C233.802 441.489 233.626 441.347 233.588 441.143C233.548 440.913 233.701 440.693 233.93 440.653C236.147 440.257 237.878 438.498 238.236 436.271L238.299 435.875C238.524 434.477 238.19 433.074 237.36 431.926C236.529 430.779 235.302 430.021 233.904 429.797L216.702 427.03C216.472 426.994 216.316 426.777 216.352 426.548C216.39 426.316 216.608 426.162 216.836 426.198L234.037 428.963C235.659 429.225 237.082 430.101 238.044 431.433C239.006 432.764 239.393 434.389 239.131 436.011L239.067 436.405C238.652 438.983 236.648 441.024 234.078 441.483C234.053 441.487 234.028 441.489 234.003 441.489Z" fill="black"/>
<path d="M229.929 450.252C229.727 450.252 229.549 450.107 229.514 449.902C229.474 449.673 229.627 449.455 229.857 449.414C232.089 449.028 233.829 447.265 234.189 445.029L234.252 444.633C234.477 443.233 234.145 441.831 233.315 440.684C232.483 439.534 231.257 438.779 229.857 438.553L212.779 435.806C212.55 435.77 212.393 435.554 212.429 435.323C212.468 435.093 212.686 434.936 212.913 434.974L229.991 437.721C231.612 437.981 233.035 438.857 233.997 440.188C234.959 441.519 235.346 443.145 235.084 444.767L235.021 445.163C234.604 447.754 232.588 449.797 230.002 450.246C229.977 450.25 229.952 450.252 229.929 450.252Z" fill="black"/>
<path d="M236.12 430.629C236.002 430.629 235.883 430.579 235.799 430.482C235.648 430.304 235.669 430.038 235.847 429.887C236.837 429.04 237.499 427.864 237.706 426.574C237.939 425.123 237.595 423.667 236.732 422.476C235.872 421.284 234.598 420.498 233.146 420.265L202.493 415.336C202.262 415.3 202.105 415.084 202.143 414.852C202.18 414.623 202.396 414.466 202.627 414.504L233.28 419.433C236.736 419.99 239.094 423.252 238.54 426.708C238.301 428.194 237.537 429.552 236.394 430.528C236.313 430.597 236.218 430.629 236.12 430.629Z" fill="black"/>
<path d="M224.01 462.873C223.637 462.873 223.26 462.845 222.879 462.783L219.682 462.269C219.571 462.252 219.471 462.191 219.406 462.099C219.341 462.009 219.314 461.896 219.332 461.785L220.299 455.835L180.91 449.495L172.244 451.482C172.018 451.536 171.789 451.394 171.737 451.166C171.686 450.939 171.827 450.713 172.055 450.662L180.801 448.653C180.855 448.642 180.91 448.64 180.962 448.65L220.85 455.07C220.961 455.087 221.059 455.148 221.126 455.238C221.191 455.33 221.217 455.443 221.2 455.554L220.232 461.504L223.013 461.95C226.414 462.498 229.629 460.177 230.178 456.776L230.56 454.399C230.828 452.75 230.436 451.096 229.457 449.742C228.479 448.388 227.032 447.496 225.383 447.23L209.174 444.624C208.944 444.587 208.788 444.371 208.824 444.14C208.862 443.91 209.08 443.753 209.308 443.792L225.517 446.398C227.387 446.699 229.03 447.71 230.141 449.248C231.251 450.784 231.696 452.662 231.394 454.533L231.01 456.91C230.447 460.389 227.427 462.873 224.01 462.873Z" fill="black"/>
<path d="M164.63 420.25C164.439 420.25 164.265 420.118 164.221 419.923C164.168 419.695 164.31 419.47 164.536 419.416L185.623 414.568C189.186 413.692 193.944 413.629 194.921 413.625L207.713 401.331C209.759 399.361 210.381 397.54 211.167 395.233C211.253 394.979 211.343 394.717 211.435 394.449C211.861 393.225 212.873 392.328 214.141 392.051C215.411 391.772 216.708 392.166 217.608 393.103L217.714 393.212C221.261 396.901 220.15 401.216 219.508 402.901L219.483 402.97C219.479 402.981 219.477 402.991 219.473 403.002C217.735 407.931 215.068 410.381 214.064 411.305C213.934 411.425 213.81 411.538 213.772 411.584C213.762 411.595 213.753 411.605 213.741 411.617C212.963 412.364 211.387 413.915 209.059 416.228C208.895 416.39 208.627 416.39 208.462 416.226C208.298 416.059 208.3 415.794 208.464 415.629C210.782 413.328 212.356 411.779 213.142 411.022C213.217 410.938 213.33 410.834 213.494 410.683C214.455 409.802 217.002 407.459 218.67 402.74C218.681 402.704 218.697 402.662 218.72 402.601C219.305 401.067 220.318 397.138 217.105 393.795L217 393.686C216.304 392.963 215.304 392.661 214.321 392.875C213.341 393.089 212.561 393.782 212.232 394.727C212.14 394.992 212.05 395.253 211.964 395.507C211.142 397.921 210.492 399.827 208.296 401.939L195.382 414.35C195.304 414.426 195.208 414.455 195.088 414.468C195.032 414.464 189.627 414.451 185.818 415.388L164.726 420.238C164.693 420.246 164.663 420.25 164.63 420.25Z" fill="black"/>
<path d="M176.372 417.128L168.218 419.066L175.157 450.466L179.105 449.476L176.372 417.128Z" fill="black"/>
<path d="M170.802 415.694L86.7324 437.608L95.5874 394.946C95.5874 394.946 90.6633 366.147 84.3882 356.146C82.269 356.256 76.4084 359.708 74.4409 361.169C67.2755 366.487 61.9798 374.518 59.9876 384.052L47.9964 441.439C43.2001 464.394 63.0395 484.634 84.6963 478.881L179.105 453.802L170.802 415.694Z" fill="#4C73FF"/>
<path d="M79.3052 479.778C79.2577 461.234 64.9812 446.213 47.3576 446.165C46.0967 465.191 61.3586 481.098 79.3052 479.778Z" fill="#FCB503"/>
<path d="M77.1491 480.302C69.7603 480.302 62.672 477.455 56.9578 472.04C48.7071 464.22 45.2027 452.748 47.5837 441.353L59.5747 383.966C63.1648 366.814 77.8235 354.134 94.43 353.815C94.4952 353.814 95.1992 353.813 95.8122 353.812C96.2821 353.812 96.678 353.81 96.7266 353.81C96.9574 353.81 97.1458 353.996 97.1483 354.227C97.1508 354.46 96.9641 354.651 96.7312 354.654C96.6822 354.654 96.2733 354.655 95.8133 354.655C95.2065 354.657 94.5099 354.657 94.4456 354.659C78.2288 354.97 63.9105 367.367 60.4006 384.139L48.4094 441.525C46.0886 452.633 49.5012 463.81 57.538 471.428C64.9919 478.491 74.8506 481.06 84.5881 478.474L178.606 453.498L170.485 416.212L86.1814 438.188L96.3423 389.236C96.3896 389.006 96.6128 388.863 96.8409 388.908C97.0689 388.956 97.2154 389.178 97.168 389.408L87.2834 437.029L171.122 415.174L179.602 454.104L179.212 454.209L84.8048 479.289C82.2469 479.968 79.6798 480.302 77.1491 480.302Z" fill="black"/>
<path d="M281.741 369.395L280.863 385.766C280.679 389.197 281.459 392.611 283.112 395.623L286.474 401.751C287.58 403.771 290.112 404.511 292.132 403.406L292.925 402.97C294.943 401.864 295.683 399.332 294.578 397.314L290.883 388.863L291.896 369.938L281.741 369.395Z" fill="#955B50"/>
<path d="M291.244 363.55L290.083 385.25C289.951 387.717 290.512 390.173 291.7 392.34L295.699 399.627C296.844 401.719 299.472 402.488 301.566 401.34L302.087 401.055C304.179 399.91 304.948 397.282 303.8 395.188L299.246 386.875L300.469 364.043L291.244 363.55Z" fill="#955B50"/>
<path d="M299.952 361.501L298.768 383.609C298.65 385.81 299.151 388.002 300.21 389.934L304.487 397.726C305.589 399.738 308.113 400.476 310.125 399.372L310.94 398.927C312.952 397.825 313.69 395.3 312.589 393.288L307.954 384.827L309.176 361.995L299.952 361.501Z" fill="#955B50"/>
<path d="M308.695 359.293L307.511 381.572C307.4 383.662 307.874 385.741 308.878 387.577L311.363 392.112C312.556 394.29 315.291 395.09 317.469 393.898L317.684 393.782C319.862 392.59 320.662 389.857 319.468 387.679L316.697 382.618L317.919 359.787L308.695 359.293Z" fill="#955B50"/>
<path d="M281.444 374.92L281.779 368.652C282.294 359.042 290.5 351.669 300.111 352.183L318.273 353.155L317.32 370.947L281.444 374.92Z" fill="#955B50"/>
<path d="M319.858 353.176L301.693 352.276L299.914 373.472L336.256 374.337L336.4 371.441C336.876 361.83 329.471 353.652 319.858 353.176Z" fill="#955B50"/>
<path d="M316.875 374.337H336.256L336.4 371.441L317.506 367.113L316.875 374.337Z" fill="black"/>
<path d="M288.102 364.571L287.348 383.783L265.371 391.64C262.793 392.561 259.955 391.217 259.033 388.639L258.935 388.369C258.013 385.789 259.358 382.951 261.936 382.029L267.704 379.967C271.744 378.523 275.448 376.278 278.596 373.365L288.102 364.571Z" fill="#955B50"/>
<path d="M263.707 392.349C261.496 392.349 259.421 390.978 258.635 388.78L258.539 388.511C257.541 385.716 259 382.631 261.795 381.633L267.563 379.569C271.57 378.139 275.186 375.947 278.31 373.055L281.286 370.303C281.456 370.146 281.722 370.156 281.88 370.326C282.039 370.498 282.028 370.764 281.857 370.923L278.881 373.675C275.674 376.643 271.962 378.894 267.846 380.365L262.078 382.427C259.723 383.268 258.492 385.871 259.333 388.226L259.429 388.497C260.272 390.853 262.873 392.083 265.23 391.242L280.565 385.76C280.783 385.682 281.025 385.797 281.104 386.015C281.182 386.235 281.068 386.476 280.848 386.554L265.513 392.035C264.916 392.25 264.306 392.349 263.707 392.349Z" fill="black"/>
<path d="M295.069 399.315C294.855 399.315 294.672 399.154 294.649 398.936C294.624 398.691 294.576 398.448 294.503 398.215C294.435 397.993 294.559 397.758 294.781 397.689C295.003 397.62 295.24 397.745 295.309 397.966C295.398 398.253 295.458 398.55 295.488 398.85C295.513 399.083 295.343 399.29 295.112 399.313C295.098 399.315 295.083 399.315 295.069 399.315Z" fill="black"/>
<path d="M299.497 402.293C297.82 402.293 296.19 401.401 295.328 399.827L291.33 392.542C290.102 390.305 289.525 387.776 289.663 385.229L290.175 375.631C290.188 375.4 290.387 375.216 290.619 375.234C290.852 375.245 291.03 375.444 291.019 375.677L290.504 385.273C290.376 387.663 290.917 390.037 292.069 392.137L296.068 399.422C297.1 401.31 299.478 402.004 301.364 400.971L301.884 400.686C303.102 400.019 303.879 398.737 303.909 397.347C303.915 397.113 304.104 396.914 304.341 396.934C304.575 396.939 304.758 397.132 304.753 397.366C304.716 399.057 303.772 400.613 302.287 401.426L301.769 401.709C301.048 402.105 300.268 402.293 299.497 402.293Z" fill="black"/>
<path d="M308.136 400.305C306.518 400.305 304.948 399.445 304.116 397.928L299.841 390.138C298.741 388.134 298.225 385.867 298.347 383.586L298.908 373.097C298.921 372.866 299.124 372.69 299.352 372.699C299.585 372.713 299.763 372.91 299.751 373.143L299.189 383.632C299.076 385.756 299.556 387.866 300.581 389.731L304.856 397.523C305.845 399.328 308.119 399.992 309.922 399.003L310.737 398.557C312.416 397.637 313.128 395.614 312.391 393.852C312.303 393.636 312.405 393.39 312.619 393.3C312.835 393.21 313.082 393.313 313.17 393.527C314.073 395.688 313.2 398.169 311.143 399.296L310.328 399.743C309.632 400.124 308.88 400.305 308.136 400.305Z" fill="black"/>
<path d="M290.137 404.339C288.513 404.339 286.939 403.476 286.105 401.954L282.743 395.826C281.05 392.743 280.255 389.256 280.442 385.743L281.395 367.947C281.901 358.497 290.003 351.216 299.451 351.696L319.879 352.755C329.708 353.241 337.309 361.633 336.821 371.462L336.677 374.358C336.666 374.591 336.469 374.771 336.236 374.759C336.004 374.748 335.824 374.549 335.836 374.316L335.979 371.42C336.442 362.056 329.201 354.061 319.837 353.597L299.407 352.539C290.42 352.077 282.718 359.005 282.238 367.991L281.286 385.787C281.106 389.144 281.865 392.475 283.481 395.421L286.845 401.549C287.836 403.362 290.118 404.027 291.929 403.035L292.723 402.6C294.044 401.876 294.802 400.437 294.649 398.936C294.626 398.705 294.794 398.498 295.027 398.473C295.259 398.454 295.465 398.618 295.488 398.852C295.676 400.69 294.748 402.451 293.128 403.341L292.335 403.775C291.636 404.157 290.881 404.339 290.137 404.339Z" fill="black"/>
<path d="M315.319 394.87C313.577 394.87 311.886 393.946 310.993 392.315L308.509 387.778C307.464 385.873 306.975 383.72 307.09 381.549L307.679 370.404C307.692 370.173 307.897 369.989 308.122 370.005C308.356 370.018 308.534 370.217 308.52 370.448L307.931 381.595C307.824 383.607 308.279 385.605 309.249 387.373L311.733 391.909C312.814 393.881 315.296 394.606 317.266 393.527L317.481 393.411C318.435 392.888 319.129 392.026 319.435 390.982C319.741 389.937 319.621 388.836 319.099 387.881L316.327 382.821C316.289 382.754 316.272 382.675 316.276 382.597L317.232 364.718C317.245 364.485 317.448 364.303 317.676 364.319C317.909 364.332 318.087 364.531 318.073 364.762L317.123 382.522L319.837 387.476C320.468 388.629 320.613 389.957 320.244 391.219C319.875 392.479 319.037 393.52 317.886 394.151L317.672 394.267C316.924 394.677 316.117 394.87 315.319 394.87Z" fill="black"/>
<path d="M221.504 234.843V363.856L240.804 339.136C240.884 339.033 241.007 338.974 241.137 338.974H364.666V234.843H221.504ZM221.082 365.502C221.036 365.502 220.99 365.495 220.944 365.48C220.774 365.422 220.661 365.261 220.661 365.082V234.422C220.661 234.189 220.848 234 221.082 234H365.087C365.32 234 365.509 234.189 365.509 234.422V339.395C365.509 339.628 365.32 339.817 365.087 339.817H241.343L221.414 365.34C221.332 365.445 221.21 365.502 221.082 365.502Z" fill="black"/>
<path d="M260.737 266.102H276.412V250.427H260.737V266.102ZM276.833 266.945H260.316C260.083 266.945 259.894 266.756 259.894 266.523V250.005C259.894 249.772 260.083 249.583 260.316 249.583H276.833C277.066 249.583 277.256 249.772 277.256 250.005V266.523C277.256 266.756 277.066 266.945 276.833 266.945Z" fill="black"/>
<path d="M273.962 252.877H263.187V263.653H273.962V252.877Z" fill="black"/>
<path d="M316.406 266.102H332.081V250.427H316.406V266.102ZM332.502 266.945H315.985C315.752 266.945 315.562 266.756 315.562 266.523V250.005C315.562 249.772 315.752 249.583 315.985 249.583H332.502C332.735 249.583 332.925 249.772 332.925 250.005V266.523C332.925 266.756 332.735 266.945 332.502 266.945Z" fill="black"/>
<path d="M329.631 252.877H318.856V263.653H329.631V252.877Z" fill="black"/>
<path d="M260.737 321.771H276.412V306.097H260.737V321.771ZM276.833 322.615H260.316C260.083 322.615 259.894 322.426 259.894 322.193V305.675C259.894 305.442 260.083 305.253 260.316 305.253H276.833C277.066 305.253 277.256 305.442 277.256 305.675V322.193C277.256 322.426 277.066 322.615 276.833 322.615Z" fill="black"/>
<path d="M273.962 308.546H263.187V319.322H273.962V308.546Z" fill="black"/>
<path d="M284.914 250.006H280.765V271.844H284.914V250.006Z" fill="black"/>
<path d="M294.215 267.697H280.765V271.844H294.215V267.697Z" fill="black"/>
<path d="M289.418 258.265H280.765V262.412H289.418V258.265Z" fill="black"/>
<path d="M273.765 276.888H260.316V281.035H273.765V276.888Z" fill="black"/>
<path d="M310.481 253.819H292.795V257.966H310.481V253.819Z" fill="black"/>
<path d="M332.584 273.201H315.903V277.348H332.584V273.201Z" fill="black"/>
<path d="M305.47 249.823H301.322V271.662H305.47V249.823Z" fill="black"/>
<path d="M309.616 271.45H305.47V275.598H309.616V271.45Z" fill="black"/>
<path d="M298.363 271.844H294.214V275.991H298.363V271.844Z" fill="black"/>
<path d="M280.981 301.528H276.833V305.675H280.981V301.528Z" fill="black"/>
<path d="M270.089 281.035H265.941V285.182H270.089V281.035Z" fill="black"/>
<path d="M277.912 272.741H273.765V276.888H277.912V272.741Z" fill="black"/>
<path d="M323.284 300.355H319.135V322.193H323.284V300.355Z" fill="black"/>
<path d="M332.584 318.045H319.135V322.193H332.584V318.045Z" fill="black"/>
<path d="M326.791 304.398H313.342V308.546H326.791V304.398Z" fill="black"/>
<path d="M313.342 300.251H309.194V304.398H313.342V300.251Z" fill="black"/>
<path d="M314.513 286.56H279.853V290.707H314.513V286.56Z" fill="black"/>
<path d="M294.214 276.009H290.068V297.848H294.214V276.009Z" fill="black"/>
<path d="M304.871 281.763H300.725V303.601H304.871V281.763Z" fill="black"/>
<path d="M300.725 303.601H296.578V307.748H300.725V303.601Z" fill="black"/>
<path d="M296.578 307.749H292.43V311.896H296.578V307.749Z" fill="black"/>
<path d="M313.388 308.457H309.24V312.604H313.388V308.457Z" fill="black"/>
<path d="M318.661 282.413H314.512V286.56H318.661V282.413Z" fill="black"/>
<path d="M332.584 291.505H328.438V301.129H332.584V291.505Z" fill="black"/>
<path d="M284.001 290.707H279.853V294.854H284.001V290.707Z" fill="black"/>
<path d="M264.463 288.634H260.316V301.261H264.463V288.634Z" fill="black"/>
<path d="M297.183 318.045H282.949V322.193H297.183V318.045Z" fill="black"/>
<path d="M305.47 313.934H301.322V322.193H305.47V313.934Z" fill="black"/>
<path d="M290.068 297.848H285.922V306.107H290.068V297.848Z" fill="black"/>
<path d="M328.392 283.246H324.244V291.505H328.392V283.246Z" fill="black"/>
<path d="M274.236 285.182H270.089V293.441H274.236V285.182Z" fill="black"/>
<path d="M282.06 276.888H277.912V281.035H282.06V276.888Z" fill="black"/>
<path d="M313.763 275.598H309.616V279.745H313.763V275.598Z" fill="black"/>
<path d="M309.616 261.579H305.47V265.726H309.616V261.579Z" fill="black"/>
<path d="M323.727 269.054H319.581V273.201H323.727V269.054Z" fill="black"/>
<path d="M318.661 290.707H314.512V294.854H318.661V290.707Z" fill="black"/>
<path d="M332.584 310.958H328.438V315.105H332.584V310.958Z" fill="black"/>
<path d="M332.483 279.047H328.337V283.195H332.483V279.047Z" fill="black"/>
<path d="M264.629 269.687H260.482V273.834H264.629V269.687Z" fill="black"/>
<path d="M286.524 310.209H282.376V314.356H286.524V310.209Z" fill="black"/>
<path d="M336.66 258.686C336.427 258.686 336.237 258.498 336.237 258.265V246.271H324.244C324.01 246.271 323.823 246.082 323.823 245.849C323.823 245.616 324.01 245.427 324.244 245.427H336.66C336.892 245.427 337.081 245.616 337.081 245.849V258.265C337.081 258.498 336.892 258.686 336.66 258.686Z" fill="black"/>
<path d="M255.6 258.686C255.366 258.686 255.179 258.498 255.179 258.265V245.849C255.179 245.616 255.366 245.427 255.6 245.427H268.016C268.248 245.427 268.437 245.616 268.437 245.849C268.437 246.082 268.248 246.271 268.016 246.271H256.022V258.265C256.022 258.498 255.833 258.686 255.6 258.686Z" fill="black"/>
<path d="M268.016 326.748H255.6C255.366 326.748 255.179 326.56 255.179 326.327V313.911C255.179 313.678 255.366 313.49 255.6 313.49C255.833 313.49 256.022 313.678 256.022 313.911V325.905H268.016C268.248 325.905 268.437 326.094 268.437 326.327C268.437 326.56 268.248 326.748 268.016 326.748Z" fill="black"/>
<path d="M336.66 326.748H324.244C324.01 326.748 323.823 326.56 323.823 326.327C323.823 326.094 324.01 325.905 324.244 325.905H336.237V313.911C336.237 313.678 336.427 313.49 336.66 313.49C336.892 313.49 337.081 313.678 337.081 313.911V326.327C337.081 326.56 336.892 326.748 336.66 326.748Z" fill="black"/>
</g>
</g>
<defs>
<clipPath id="clip0_415_7291">
<rect width="424" height="500" rx="16" fill="white"/>
</clipPath>
<clipPath id="clip1_415_7291">
<rect width="350" height="266" fill="white" transform="translate(37 234)"/>
</clipPath>
</defs>
</svg>
